<svg xmlns="http://www.w3.org/2000/svg" width="1280" height="320" viewBox="0 0 1280 320" role="img" aria-labelledby="t d">
<!-- generated by github.com/Furkiozknn/Furkiozknn assets/banner/banner.py; edit banners.json there, not this file -->
<title id="t">repo-ratchet</title><desc id="d">Picks the repository to work on next from measured signals, and records no progress without a commit.</desc>
<defs><radialGradient id="g" cx="1" cy="0" r="0.9"><stop offset="0" stop-color="#58a6ff" stop-opacity=".16"/><stop offset="1" stop-color="#58a6ff" stop-opacity="0"/></radialGradient>
<style>.u{font:700 13px/1 -apple-system,BlinkMacSystemFont,'Segoe UI',Helvetica,Arial,'DejaVu Sans',sans-serif;letter-spacing:.22em;fill:#d4a95c}.n{font:700 60px/1 ui-monospace,SFMono-Regular,'SF Mono',Menlo,Consolas,'DejaVu Sans Mono',monospace;fill:#f2efe6}
.p{font:400 21px/1 -apple-system,BlinkMacSystemFont,'Segoe UI',Helvetica,Arial,'DejaVu Sans',sans-serif;fill:#c9d1d9}.c{fill:none;stroke:#58a6ff;stroke-opacity:.55}.ct{font:600 13px/1 ui-monospace,SFMono-Regular,'SF Mono',Menlo,Consolas,'DejaVu Sans Mono',monospace;fill:#58a6ff}
.k{font:400 13px/1 ui-monospace,SFMono-Regular,'SF Mono',Menlo,Consolas,'DejaVu Sans Mono',monospace;fill:#7d8590}.d{font:500 14px/1 ui-monospace,SFMono-Regular,'SF Mono',Menlo,Consolas,'DejaVu Sans Mono',monospace;fill:#e6edf3}.f{font:400 12px/1 ui-monospace,SFMono-Regular,'SF Mono',Menlo,Consolas,'DejaVu Sans Mono',monospace;fill:#484f58}</style></defs>
<rect width="1280" height="320" rx="14" fill="#0d1117"/><rect width="1280" height="320" rx="14" fill="url(#g)"/>
<rect x="0.5" y="0.5" width="1279" height="319" rx="13.5" fill="none" stroke="#30363d"/>
<rect x="72" y="0" width="140" height="4" fill="#58a6ff"/>
<text x="72" y="64" class="u">MAINTENANCE LOOP</text>
<text x="72" y="128" class="n">repo-ratchet</text>
<text x="72" y="176" class="p">Picks the repository to work on next from measured</text><text x="72" y="206" class="p">signals, and records no progress without a commit.</text><rect x="72" y="244" width="163" height="30" rx="15" class="c"/><text x="153" y="264" class="ct" text-anchor="middle">zero dependencies</text><rect x="244.8" y="244" width="138" height="30" rx="15" class="c"/><text x="314" y="264" class="ct" text-anchor="middle">no shell, ever</text><rect x="392.40000000000003" y="244" width="171" height="30" rx="15" class="c"/><text x="478" y="264" class="ct" text-anchor="middle">allowlisted checks</text>
<line x1="790" y1="60" x2="790" y2="260" stroke="#30363d"/>
<circle cx="826" cy="96" r="4" fill="#58a6ff" opacity="1.00"/><text x="842" y="101" class="k">measures</text><text x="930" y="101" class="d">signals from each repository</text><circle cx="826" cy="134" r="4" fill="#58a6ff" opacity="0.85"/><text x="842" y="139" class="k">chooses</text><text x="930" y="139" class="d">the next repository to open</text><circle cx="826" cy="172" r="4" fill="#58a6ff" opacity="0.70"/><text x="842" y="177" class="k">records</text><text x="930" y="177" class="d">advanced only with a commit</text><circle cx="826" cy="210" r="4" fill="#58a6ff" opacity="0.55"/><text x="842" y="215" class="k">checks</text><text x="930" y="215" class="d">the repo&#x27;s own tests must pass</text><circle cx="826" cy="248" r="4" fill="#58a6ff" opacity="0.40"/><text x="842" y="253" class="k">allows</text><text x="930" y="253" class="d">&#x27;nothing to do&#x27;, with evidence</text>
<text x="1208" y="290" class="f" text-anchor="end">github.com/Furkiozknn/repo-ratchet</text>
</svg>
